<mxfile host="app.diagrams.net" modified="2024-06-20T21:49:03.028Z" agent="Mozilla/5.0 (Windows NT 10.0; Win64; x64) AppleWebKit/537.36 (KHTML, like Gecko) Chrome/123.0.0.0 Safari/537.36" version="24.6.0" etag="s4Whn8WfFgyMcA_r1E4O" type="github">
  <diagram name="PÃ¡gina-1" id="0P2HKKypik-2BZC9i3HW">
    <mxGraphModel>
      <root>
        <mxCell id="0" />
        <mxCell id="1" parent="0" />
      </root>
    </mxGraphModel>
  </diagram>
</mxfile>
